<svg width="303" height="168" viewBox="0 0 303 168" fill="none" xmlns="http://www.w3.org/2000/svg">
<path d="M0.208 67V64.984L2.128 64.408C3.408 63.96 4.24 63.384 4.624 62.68C5.072 61.912 5.296 60.856 5.296 59.512V11.032C5.296 9.688 5.072 8.664 4.624 7.96C4.24 7.192 3.408 6.584 2.128 6.136L0.208 5.56V3.544H24.208V5.56L22.288 6.136C21.072 6.584 20.24 7.192 19.792 7.96C19.344 8.664 19.12 9.688 19.12 11.032V59.512C19.12 60.856 19.344 61.912 19.792 62.68C20.24 63.384 21.072 63.96 22.288 64.408L24.208 64.984V67H0.208ZM47.752 50.584C43.528 50.584 39.912 49.88 36.904 48.472V51.928C36.904 53.848 37.864 55 39.784 55.384L56.872 58.552C60.136 59.192 63.016 59.992 65.512 60.952C68.008 61.848 69.96 63.16 71.368 64.888C72.776 66.552 73.48 68.824 73.48 71.704C73.48 74.776 72.456 77.624 70.408 80.248C68.424 82.936 65.448 85.08 61.48 86.68C57.576 88.344 52.68 89.176 46.792 89.176C41.736 89.176 37.704 88.632 34.696 87.544C31.752 86.52 29.64 85.176 28.36 83.512C27.08 81.848 26.44 80.056 26.44 78.136C26.44 75.832 27.208 73.528 28.744 71.224C30.344 68.92 32.392 67 34.888 65.464C30.984 63.992 29.032 61.656 29.032 58.456C29.032 57.24 29.32 56.12 29.896 55.096C30.472 54.072 31.176 53.048 32.008 52.024L35.464 47.704C30.856 45.016 28.552 40.824 28.552 35.128C28.552 30.456 30.184 26.68 33.448 23.8C36.776 20.92 41.544 19.48 47.752 19.48C53.96 19.48 58.76 20.92 62.152 23.8C64.2 23.48 66.12 22.968 67.912 22.264C69.704 21.56 71.368 20.6 72.904 19.384L74.248 20.344V25.72H63.88C65.928 28.28 66.952 31.416 66.952 35.128C66.952 39.672 65.288 43.384 61.96 46.264C58.696 49.144 53.96 50.584 47.752 50.584ZM47.56 47.992C50.248 47.992 52.2 46.968 53.416 44.92C54.696 42.808 55.336 39.448 55.336 34.84C55.336 30.296 54.728 27.032 53.512 25.048C52.296 23.064 50.408 22.072 47.848 22.072C45.288 22.072 43.368 23.096 42.088 25.144C40.872 27.128 40.264 30.424 40.264 35.032C40.264 39.64 40.84 42.968 41.992 45.016C43.144 47 45 47.992 47.56 47.992ZM33.928 75.352C33.928 78.872 35.048 81.496 37.288 83.224C39.528 85.016 43.08 85.912 47.944 85.912C53.32 85.912 57.288 85.016 59.848 83.224C62.472 81.496 63.784 79.192 63.784 76.312C63.784 74.52 63.112 73.112 61.768 72.088C60.488 71.064 58.312 70.264 55.24 69.688L38.056 66.328C37.8 66.264 37.544 66.2 37.288 66.136C36.328 67.416 35.528 68.888 34.888 70.552C34.248 72.216 33.928 73.816 33.928 75.352ZM77.641 67V65.176L79.177 64.792C81.289 64.152 82.345 62.584 82.345 60.088V31.768C82.281 30.424 82.057 29.4 81.673 28.696C81.289 27.928 80.457 27.416 79.177 27.16L77.641 26.776V25.048L93.193 19.48L94.345 20.536L95.017 26.488C97.321 24.44 99.881 22.776 102.697 21.496C105.577 20.152 108.393 19.48 111.145 19.48C115.369 19.48 118.601 20.632 120.841 22.936C123.145 25.24 124.297 28.76 124.297 33.496V60.184C124.297 62.68 125.449 64.248 127.753 64.888L128.809 65.176V67H106.729V65.176L108.169 64.792C110.281 64.088 111.337 62.52 111.337 60.088V31.576C111.337 29.336 110.857 27.704 109.897 26.68C108.937 25.656 107.337 25.144 105.097 25.144C101.961 25.144 98.697 26.52 95.305 29.272V60.184C95.305 62.68 96.425 64.248 98.665 64.888L99.625 65.176V67H77.641ZM146.217 68.344C142.569 68.344 139.465 67.32 136.905 65.272C134.409 63.16 133.161 60.152 133.161 56.248C133.161 53.176 134.633 50.36 137.577 47.8C140.585 45.176 145.289 43.256 151.689 42.04C152.777 41.784 154.025 41.56 155.433 41.368C156.905 41.112 158.345 40.856 159.753 40.6V33.784C159.753 29.432 159.209 26.424 158.121 24.76C157.033 23.096 155.305 22.264 152.937 22.264H152.649C151.177 22.264 149.993 22.744 149.097 23.704C148.265 24.6 147.721 26.104 147.465 28.216L147.177 29.464C146.985 32.024 146.313 33.912 145.161 35.128C144.009 36.28 142.569 36.856 140.841 36.856C139.241 36.856 137.897 36.376 136.809 35.416C135.785 34.392 135.273 33.08 135.273 31.48C135.273 28.856 136.169 26.648 137.961 24.856C139.753 23.064 142.121 21.72 145.065 20.824C148.073 19.928 151.305 19.48 154.761 19.48C160.457 19.48 164.809 20.856 167.817 23.608C170.825 26.36 172.329 30.84 172.329 37.048V58.456C172.329 61.208 173.641 62.584 176.265 62.584H178.473L179.433 63.64C178.281 65.112 177.001 66.232 175.593 67C174.185 67.832 172.265 68.248 169.833 68.248C167.081 68.248 164.873 67.608 163.209 66.328C161.609 64.984 160.553 63.224 160.041 61.048C157.993 63.224 155.977 64.984 153.993 66.328C152.009 67.672 149.417 68.344 146.217 68.344ZM151.785 62.2C153.065 62.2 154.281 61.912 155.433 61.336C156.585 60.76 158.025 59.8 159.753 58.456V43.096C158.089 43.352 156.393 43.672 154.665 44.056C151.913 44.696 149.673 45.88 147.945 47.608C146.281 49.336 145.449 51.672 145.449 54.616C145.449 57.176 146.025 59.096 147.177 60.376C148.393 61.592 149.929 62.2 151.785 62.2ZM205.13 68.344C200.778 68.344 196.842 67.416 193.322 65.56C189.802 63.64 187.018 60.888 184.97 57.304C182.986 53.656 181.994 49.24 181.994 44.056C181.994 38.872 183.114 34.456 185.354 30.808C187.594 27.16 190.57 24.376 194.282 22.456C198.058 20.472 202.186 19.48 206.666 19.48C210.314 19.48 213.418 20.088 215.978 21.304C218.538 22.52 220.49 24.088 221.834 26.008C223.178 27.864 223.85 29.848 223.85 31.96C223.85 33.752 223.306 35.128 222.218 36.088C221.194 37.048 219.85 37.528 218.186 37.528C216.394 37.528 214.922 36.888 213.77 35.608C212.682 34.328 212.042 32.696 211.85 30.712C211.786 29.432 211.786 28.344 211.85 27.448C211.978 26.552 211.978 25.688 211.85 24.856C211.594 23.768 211.146 23.032 210.506 22.648C209.93 22.264 209.098 22.072 208.01 22.072C203.978 22.072 200.874 23.704 198.698 26.968C196.586 30.168 195.53 35.384 195.53 42.616C195.53 48.824 196.714 53.592 199.082 56.92C201.45 60.248 205.13 61.912 210.122 61.912C213.066 61.912 215.498 61.368 217.418 60.28C219.338 59.128 221.098 57.496 222.698 55.384L224.234 56.536C222.634 60.376 220.17 63.32 216.842 65.368C213.578 67.352 209.674 68.344 205.13 68.344ZM239.902 14.2C237.79 14.2 235.998 13.528 234.526 12.184C233.054 10.84 232.318 9.144 232.318 7.096C232.318 4.984 233.054 3.288 234.526 2.008C235.998 0.663998 237.79 -0.00800133 239.902 -0.00800133C242.014 -0.00800133 243.806 0.663998 245.278 2.008C246.75 3.288 247.486 4.984 247.486 7.096C247.486 9.144 246.75 10.84 245.278 12.184C243.806 13.528 242.014 14.2 239.902 14.2ZM228.862 67V65.176L230.302 64.792C231.582 64.408 232.446 63.832 232.894 63.064C233.342 62.296 233.598 61.272 233.662 59.992V42.328C233.662 40.344 233.662 38.52 233.662 36.856C233.662 35.128 233.63 33.368 233.566 31.576C233.566 30.296 233.31 29.304 232.798 28.6C232.35 27.832 231.486 27.32 230.206 27.064L228.862 26.776V25.048L245.662 19.48L246.814 20.536L246.526 34.168V60.088C246.526 61.368 246.75 62.392 247.198 63.16C247.71 63.928 248.574 64.504 249.79 64.888L250.846 65.176V67H228.862ZM279.11 68.344C274.374 68.344 270.214 67.352 266.63 65.368C263.11 63.384 260.358 60.568 258.374 56.92C256.454 53.272 255.494 48.92 255.494 43.864C255.494 38.808 256.518 34.456 258.566 30.808C260.678 27.16 263.494 24.376 267.014 22.456C270.598 20.472 274.63 19.48 279.11 19.48C283.59 19.48 287.59 20.472 291.11 22.456C294.694 24.376 297.51 27.16 299.558 30.808C301.67 34.392 302.726 38.744 302.726 43.864C302.726 48.92 301.734 53.304 299.75 57.016C297.83 60.664 295.11 63.48 291.59 65.464C288.07 67.384 283.91 68.344 279.11 68.344ZM279.11 65.656C281.414 65.656 283.27 65.048 284.678 63.832C286.15 62.552 287.206 60.344 287.846 57.208C288.486 54.072 288.806 49.688 288.806 44.056C288.806 38.36 288.486 33.944 287.846 30.808C287.206 27.608 286.15 25.4 284.678 24.184C283.27 22.904 281.414 22.264 279.11 22.264C276.806 22.264 274.95 22.904 273.542 24.184C272.134 25.4 271.078 27.608 270.374 30.808C269.734 33.944 269.414 38.36 269.414 44.056C269.414 49.688 269.734 54.072 270.374 57.208C271.078 60.344 272.134 62.552 273.542 63.832C274.95 65.048 276.806 65.656 279.11 65.656ZM32.944 167.632C26.416 167.632 20.688 166.256 15.76 163.504C10.832 160.752 6.96 156.88 4.144 151.888C1.392 146.832 0.0160002 140.912 0.0160002 134.128C0.0160002 127.472 1.36 121.648 4.048 116.656C6.8 111.664 10.768 107.792 15.952 105.04C21.136 102.224 27.344 100.816 34.576 100.816C38.032 100.816 41.232 101.2 44.176 101.968C47.184 102.736 50 103.856 52.624 105.328L53.008 119.056H50.416L45.616 109.36C44.848 107.824 44.112 106.704 43.408 106C42.704 105.296 41.776 104.784 40.624 104.464C39.792 104.144 38.992 103.952 38.224 103.888C37.456 103.76 36.464 103.696 35.248 103.696C31.216 103.696 27.664 104.752 24.592 106.864C21.52 108.912 19.12 112.176 17.392 116.656C15.728 121.136 14.896 126.96 14.896 134.128C14.896 144.944 16.656 152.784 20.176 157.648C23.76 162.448 28.528 164.848 34.48 164.848C35.888 164.848 37.104 164.656 38.128 164.272C39.344 164.08 40.176 163.6 40.624 162.832C41.072 162 41.296 160.976 41.296 159.76C41.296 157.136 41.264 154.288 41.2 151.216C41.2 148.08 41.2 145.232 41.2 142.672C41.2 140.176 39.888 138.64 37.264 138.064L32.944 137.104V135.088H59.44V137.104L58.288 137.392C57.072 137.776 56.144 138.352 55.504 139.12C54.864 139.824 54.544 140.816 54.544 142.096C54.544 144.656 54.512 147.28 54.448 149.968C54.448 152.592 54.448 155.248 54.448 157.936V162.064C51.12 163.856 47.728 165.232 44.272 166.192C40.88 167.152 37.104 167.632 32.944 167.632ZM76.3735 167.344C72.7255 167.344 69.6215 166.32 67.0615 164.272C64.5655 162.16 63.3175 159.152 63.3175 155.248C63.3175 152.176 64.7895 149.36 67.7335 146.8C70.7415 144.176 75.4455 142.256 81.8455 141.04C82.9335 140.784 84.1815 140.56 85.5895 140.368C87.0615 140.112 88.5015 139.856 89.9095 139.6V132.784C89.9095 128.432 89.3655 125.424 88.2775 123.76C87.1895 122.096 85.4615 121.264 83.0935 121.264H82.8055C81.3335 121.264 80.1495 121.744 79.2535 122.704C78.4215 123.6 77.8775 125.104 77.6215 127.216L77.3335 128.464C77.1415 131.024 76.4695 132.912 75.3175 134.128C74.1655 135.28 72.7255 135.856 70.9975 135.856C69.3975 135.856 68.0535 135.376 66.9655 134.416C65.9415 133.392 65.4295 132.08 65.4295 130.48C65.4295 127.856 66.3255 125.648 68.1175 123.856C69.9095 122.064 72.2775 120.72 75.2215 119.824C78.2295 118.928 81.4615 118.48 84.9175 118.48C90.6135 118.48 94.9655 119.856 97.9735 122.608C100.982 125.36 102.486 129.84 102.486 136.048V157.456C102.486 160.208 103.798 161.584 106.422 161.584H108.63L109.59 162.64C108.438 164.112 107.158 165.232 105.75 166C104.342 166.832 102.422 167.248 99.9895 167.248C97.2375 167.248 95.0295 166.608 93.3655 165.328C91.7655 163.984 90.7095 162.224 90.1975 160.048C88.1495 162.224 86.1335 163.984 84.1495 165.328C82.1655 166.672 79.5735 167.344 76.3735 167.344ZM81.9415 161.2C83.2215 161.2 84.4375 160.912 85.5895 160.336C86.7415 159.76 88.1815 158.8 89.9095 157.456V142.096C88.2455 142.352 86.5495 142.672 84.8215 143.056C82.0695 143.696 79.8295 144.88 78.1015 146.608C76.4375 148.336 75.6055 150.672 75.6055 153.616C75.6055 156.176 76.1815 158.096 77.3335 159.376C78.5495 160.592 80.0855 161.2 81.9415 161.2ZM111.485 166V164.176L112.925 163.696C114.205 163.376 115.069 162.832 115.517 162.064C116.029 161.296 116.285 160.272 116.285 158.992V130.864C116.221 129.456 115.965 128.4 115.517 127.696C115.069 126.928 114.205 126.416 112.925 126.16L111.485 125.776V124.048L127.133 118.48L128.285 119.536L129.149 127.984V128.656C130.109 126.864 131.325 125.2 132.797 123.664C134.269 122.128 135.869 120.88 137.597 119.92C139.325 118.96 141.053 118.48 142.781 118.48C145.213 118.48 147.037 119.12 148.253 120.4C149.469 121.68 150.077 123.312 150.077 125.296C150.077 127.472 149.469 129.136 148.253 130.288C147.037 131.376 145.565 131.92 143.837 131.92C141.277 131.92 139.069 130.768 137.213 128.464L137.021 128.272C136.381 127.504 135.645 127.088 134.813 127.024C134.045 126.896 133.277 127.28 132.509 128.176C131.869 128.816 131.261 129.584 130.685 130.48C130.173 131.312 129.693 132.304 129.245 133.456V158.608C129.245 159.824 129.501 160.848 130.013 161.68C130.525 162.448 131.389 162.992 132.605 163.312L135.485 164.176V166H111.485ZM175.317 167.344C170.965 167.344 167.029 166.416 163.509 164.56C159.989 162.64 157.205 159.888 155.157 156.304C153.173 152.656 152.181 148.24 152.181 143.056C152.181 137.872 153.301 133.456 155.541 129.808C157.781 126.16 160.757 123.376 164.469 121.456C168.245 119.472 172.373 118.48 176.853 118.48C180.501 118.48 183.605 119.088 186.165 120.304C188.725 121.52 190.677 123.088 192.021 125.008C193.365 126.864 194.037 128.848 194.037 130.96C194.037 132.752 193.493 134.128 192.405 135.088C191.381 136.048 190.037 136.528 188.373 136.528C186.581 136.528 185.109 135.888 183.957 134.608C182.869 133.328 182.229 131.696 182.037 129.712C181.973 128.432 181.973 127.344 182.037 126.448C182.165 125.552 182.165 124.688 182.037 123.856C181.781 122.768 181.333 122.032 180.693 121.648C180.117 121.264 179.285 121.072 178.197 121.072C174.165 121.072 171.061 122.704 168.885 125.968C166.773 129.168 165.717 134.384 165.717 141.616C165.717 147.824 166.901 152.592 169.269 155.92C171.637 159.248 175.317 160.912 180.309 160.912C183.253 160.912 185.685 160.368 187.605 159.28C189.525 158.128 191.285 156.496 192.885 154.384L194.421 155.536C192.821 159.376 190.357 162.32 187.029 164.368C183.765 166.352 179.861 167.344 175.317 167.344ZM199.05 166V164.176L200.49 163.792C201.77 163.408 202.634 162.832 203.082 162.064C203.53 161.296 203.754 160.272 203.754 158.992C203.754 156.816 203.754 154.544 203.754 152.176C203.818 149.744 203.85 147.632 203.85 145.84V141.328C203.85 139.344 203.818 137.52 203.754 135.856C203.754 134.128 203.754 132.368 203.754 130.576C203.69 129.296 203.434 128.304 202.986 127.6C202.538 126.832 201.674 126.32 200.394 126.064L199.05 125.776V124.048L215.85 118.48L217.002 119.536L216.714 133.168V159.088C216.778 160.368 217.034 161.392 217.482 162.16C217.93 162.928 218.762 163.504 219.978 163.888L221.034 164.176V166H199.05ZM203.946 110.8C204.97 109.008 206.058 107.12 207.21 105.136C208.426 103.088 209.834 100.592 211.434 97.648C212.522 95.664 213.578 94.256 214.602 93.424C215.626 92.528 216.778 92.08 218.058 92.08C219.21 92.08 220.234 92.464 221.13 93.232C222.09 94 222.57 95.024 222.57 96.304C222.57 97.52 222.154 98.64 221.322 99.664C220.49 100.688 219.146 101.872 217.29 103.216C214.73 105.2 212.522 106.896 210.666 108.304C208.81 109.712 207.146 111.024 205.674 112.24L203.946 110.8ZM239.217 167.344C235.569 167.344 232.465 166.32 229.905 164.272C227.409 162.16 226.161 159.152 226.161 155.248C226.161 152.176 227.633 149.36 230.577 146.8C233.585 144.176 238.289 142.256 244.689 141.04C245.777 140.784 247.025 140.56 248.433 140.368C249.905 140.112 251.345 139.856 252.753 139.6V132.784C252.753 128.432 252.209 125.424 251.121 123.76C250.033 122.096 248.305 121.264 245.937 121.264H245.649C244.177 121.264 242.993 121.744 242.097 122.704C241.265 123.6 240.721 125.104 240.465 127.216L240.177 128.464C239.985 131.024 239.313 132.912 238.161 134.128C237.009 135.28 235.569 135.856 233.841 135.856C232.241 135.856 230.897 135.376 229.809 134.416C228.785 133.392 228.273 132.08 228.273 130.48C228.273 127.856 229.169 125.648 230.961 123.856C232.753 122.064 235.121 120.72 238.065 119.824C241.073 118.928 244.305 118.48 247.761 118.48C253.457 118.48 257.809 119.856 260.817 122.608C263.825 125.36 265.329 129.84 265.329 136.048V157.456C265.329 160.208 266.641 161.584 269.265 161.584H271.473L272.433 162.64C271.281 164.112 270.001 165.232 268.593 166C267.185 166.832 265.265 167.248 262.833 167.248C260.081 167.248 257.873 166.608 256.209 165.328C254.609 163.984 253.553 162.224 253.041 160.048C250.993 162.224 248.977 163.984 246.993 165.328C245.009 166.672 242.417 167.344 239.217 167.344ZM244.785 161.2C246.065 161.2 247.281 160.912 248.433 160.336C249.585 159.76 251.025 158.8 252.753 157.456V142.096C251.089 142.352 249.393 142.672 247.665 143.056C244.913 143.696 242.673 144.88 240.945 146.608C239.281 148.336 238.449 150.672 238.449 153.616C238.449 156.176 239.025 158.096 240.177 159.376C241.393 160.592 242.929 161.2 244.785 161.2Z" fill="white"/>
</svg>
