<svg width="112" height="62" viewBox="0 0 112 62" fill="none" xmlns="http://www.w3.org/2000/svg">
<path d="M0.805 25V24.265L1.505 24.055C1.97167 23.8917 2.275 23.6817 2.415 23.425C2.57833 23.145 2.66 22.76 2.66 22.27V4.595C2.66 4.105 2.57833 3.73167 2.415 3.475C2.275 3.195 1.97167 2.97333 1.505 2.81L0.805 2.6V1.865H9.555V2.6L8.855 2.81C8.41167 2.97333 8.10833 3.195 7.945 3.475C7.78167 3.73167 7.7 4.105 7.7 4.595V22.27C7.7 22.76 7.78167 23.145 7.945 23.425C8.10833 23.6817 8.41167 23.8917 8.855 24.055L9.555 24.265V25H0.805ZM18.1388 19.015C16.5988 19.015 15.2804 18.7583 14.1838 18.245V19.505C14.1838 20.205 14.5338 20.625 15.2338 20.765L21.4638 21.92C22.6538 22.1533 23.7038 22.445 24.6138 22.795C25.5238 23.1217 26.2354 23.6 26.7488 24.23C27.2621 24.8367 27.5187 25.665 27.5187 26.715C27.5187 27.835 27.1454 28.8733 26.3988 29.83C25.6754 30.81 24.5904 31.5917 23.1438 32.175C21.7204 32.7817 19.9354 33.085 17.7888 33.085C15.9454 33.085 14.4754 32.8867 13.3788 32.49C12.3054 32.1167 11.5354 31.6267 11.0688 31.02C10.6021 30.4133 10.3688 29.76 10.3688 29.06C10.3688 28.22 10.6488 27.38 11.2088 26.54C11.7921 25.7 12.5388 25 13.4488 24.44C12.0254 23.9033 11.3138 23.0517 11.3138 21.885C11.3138 21.4417 11.4188 21.0333 11.6288 20.66C11.8388 20.2867 12.0954 19.9133 12.3988 19.54L13.6588 17.965C11.9788 16.985 11.1388 15.4567 11.1388 13.38C11.1388 11.6767 11.7338 10.3 12.9238 9.25C14.1371 8.2 15.8754 7.675 18.1388 7.675C20.4021 7.675 22.1521 8.2 23.3888 9.25C24.1354 9.13333 24.8354 8.94667 25.4888 8.69C26.1421 8.43333 26.7488 8.08333 27.3088 7.64L27.7988 7.99V9.95H24.0188C24.7654 10.8833 25.1388 12.0267 25.1388 13.38C25.1388 15.0367 24.5321 16.39 23.3188 17.44C22.1288 18.49 20.4021 19.015 18.1388 19.015ZM18.0688 18.07C19.0488 18.07 19.7604 17.6967 20.2038 16.95C20.6704 16.18 20.9038 14.955 20.9038 13.275C20.9038 11.6183 20.6821 10.4283 20.2388 9.705C19.7954 8.98167 19.1071 8.62 18.1738 8.62C17.2404 8.62 16.5404 8.99333 16.0738 9.74C15.6304 10.4633 15.4088 11.665 15.4088 13.345C15.4088 15.025 15.6188 16.2383 16.0388 16.985C16.4588 17.7083 17.1354 18.07 18.0688 18.07ZM13.0988 28.045C13.0988 29.3283 13.5071 30.285 14.3238 30.915C15.1404 31.5683 16.4354 31.895 18.2088 31.895C20.1688 31.895 21.6154 31.5683 22.5488 30.915C23.5054 30.285 23.9838 29.445 23.9838 28.395C23.9838 27.7417 23.7388 27.2283 23.2488 26.855C22.7821 26.4817 21.9888 26.19 20.8688 25.98L14.6038 24.755C14.5104 24.7317 14.4171 24.7083 14.3238 24.685C13.9738 25.1517 13.6821 25.6883 13.4488 26.295C13.2154 26.9017 13.0988 27.485 13.0988 28.045ZM29.0358 25V24.335L29.5958 24.195C30.3658 23.9617 30.7508 23.39 30.7508 22.48V12.155C30.7274 11.665 30.6458 11.2917 30.5058 11.035C30.3658 10.755 30.0624 10.5683 29.5958 10.475L29.0358 10.335V9.705L34.7058 7.675L35.1258 8.06L35.3708 10.23C36.2108 9.48333 37.1441 8.87667 38.1708 8.41C39.2208 7.92 40.2474 7.675 41.2508 7.675C42.7908 7.675 43.9691 8.095 44.7858 8.935C45.6258 9.775 46.0458 11.0583 46.0458 12.785V22.515C46.0458 23.425 46.4658 23.9967 47.3058 24.23L47.6908 24.335V25H39.6408V24.335L40.1658 24.195C40.9358 23.9383 41.3208 23.3667 41.3208 22.48V12.085C41.3208 11.2683 41.1458 10.6733 40.7958 10.3C40.4458 9.92667 39.8624 9.74 39.0458 9.74C37.9024 9.74 36.7124 10.2417 35.4758 11.245V22.515C35.4758 23.425 35.8841 23.9967 36.7008 24.23L37.0508 24.335V25H29.0358ZM54.0375 25.49C52.7075 25.49 51.5759 25.1167 50.6425 24.37C49.7325 23.6 49.2775 22.5033 49.2775 21.08C49.2775 19.96 49.8142 18.9333 50.8875 18C51.9842 17.0433 53.6992 16.3433 56.0325 15.9C56.4292 15.8067 56.8842 15.725 57.3975 15.655C57.9342 15.5617 58.4592 15.4683 58.9725 15.375V12.89C58.9725 11.3033 58.7742 10.2067 58.3775 9.6C57.9809 8.99333 57.3509 8.69 56.4875 8.69H56.3825C55.8459 8.69 55.4142 8.865 55.0875 9.215C54.7842 9.54167 54.5859 10.09 54.4925 10.86L54.3875 11.315C54.3175 12.2483 54.0725 12.9367 53.6525 13.38C53.2325 13.8 52.7075 14.01 52.0775 14.01C51.4942 14.01 51.0042 13.835 50.6075 13.485C50.2342 13.1117 50.0475 12.6333 50.0475 12.05C50.0475 11.0933 50.3742 10.2883 51.0275 9.635C51.6809 8.98167 52.5442 8.49167 53.6175 8.165C54.7142 7.83833 55.8925 7.675 57.1525 7.675C59.2292 7.675 60.8159 8.17667 61.9125 9.18C63.0092 10.1833 63.5575 11.8167 63.5575 14.08V21.885C63.5575 22.8883 64.0359 23.39 64.9925 23.39H65.7975L66.1475 23.775C65.7275 24.3117 65.2609 24.72 64.7475 25C64.2342 25.3033 63.5342 25.455 62.6475 25.455C61.6442 25.455 60.8392 25.2217 60.2325 24.755C59.6492 24.265 59.2642 23.6233 59.0775 22.83C58.3309 23.6233 57.5959 24.265 56.8725 24.755C56.1492 25.245 55.2042 25.49 54.0375 25.49ZM56.0675 23.25C56.5342 23.25 56.9775 23.145 57.3975 22.935C57.8175 22.725 58.3425 22.375 58.9725 21.885V16.285C58.3659 16.3783 57.7475 16.495 57.1175 16.635C56.1142 16.8683 55.2975 17.3 54.6675 17.93C54.0609 18.56 53.7575 19.4117 53.7575 20.485C53.7575 21.4183 53.9675 22.1183 54.3875 22.585C54.8309 23.0283 55.3909 23.25 56.0675 23.25ZM75.5161 25.49C73.9294 25.49 72.4944 25.1517 71.2111 24.475C69.9277 23.775 68.9127 22.7717 68.1661 21.465C67.4427 20.135 67.0811 18.525 67.0811 16.635C67.0811 14.745 67.4894 13.135 68.3061 11.805C69.1227 10.475 70.2077 9.46 71.5611 8.76C72.9377 8.03667 74.4427 7.675 76.0761 7.675C77.4061 7.675 78.5377 7.89667 79.4711 8.34C80.4044 8.78333 81.1161 9.355 81.6061 10.055C82.0961 10.7317 82.3411 11.455 82.3411 12.225C82.3411 12.8783 82.1427 13.38 81.7461 13.73C81.3727 14.08 80.8827 14.255 80.2761 14.255C79.6227 14.255 79.0861 14.0217 78.6661 13.555C78.2694 13.0883 78.0361 12.4933 77.9661 11.77C77.9427 11.3033 77.9427 10.9067 77.9661 10.58C78.0127 10.2533 78.0127 9.93833 77.9661 9.635C77.8727 9.23833 77.7094 8.97 77.4761 8.83C77.2661 8.69 76.9627 8.62 76.5661 8.62C75.0961 8.62 73.9644 9.215 73.1711 10.405C72.4011 11.5717 72.0161 13.4733 72.0161 16.11C72.0161 18.3733 72.4477 20.1117 73.3111 21.325C74.1744 22.5383 75.5161 23.145 77.3361 23.145C78.4094 23.145 79.2961 22.9467 79.9961 22.55C80.6961 22.13 81.3377 21.535 81.9211 20.765L82.4811 21.185C81.8977 22.585 80.9994 23.6583 79.7861 24.405C78.5961 25.1283 77.1727 25.49 75.5161 25.49ZM88.1934 5.75C87.4234 5.75 86.7701 5.505 86.2334 5.015C85.6968 4.525 85.4284 3.90667 85.4284 3.16C85.4284 2.39 85.6968 1.77167 86.2334 1.305C86.7701 0.814999 87.4234 0.57 88.1934 0.57C88.9634 0.57 89.6168 0.814999 90.1534 1.305C90.6901 1.77167 90.9584 2.39 90.9584 3.16C90.9584 3.90667 90.6901 4.525 90.1534 5.015C89.6168 5.505 88.9634 5.75 88.1934 5.75ZM84.1684 25V24.335L84.6934 24.195C85.1601 24.055 85.4751 23.845 85.6384 23.565C85.8018 23.285 85.8951 22.9117 85.9184 22.445V16.005C85.9184 15.2817 85.9184 14.6167 85.9184 14.01C85.9184 13.38 85.9068 12.7383 85.8834 12.085C85.8834 11.6183 85.7901 11.2567 85.6034 11C85.4401 10.72 85.1251 10.5333 84.6584 10.44L84.1684 10.335V9.705L90.2934 7.675L90.7134 8.06L90.6084 13.03V22.48C90.6084 22.9467 90.6901 23.32 90.8534 23.6C91.0401 23.88 91.3551 24.09 91.7984 24.23L92.1834 24.335V25H84.1684ZM102.488 25.49C100.761 25.49 99.2446 25.1283 97.9379 24.405C96.6546 23.6817 95.6513 22.655 94.9279 21.325C94.2279 19.995 93.8779 18.4083 93.8779 16.565C93.8779 14.7217 94.2513 13.135 94.9979 11.805C95.7679 10.475 96.7946 9.46 98.0779 8.76C99.3846 8.03667 100.855 7.675 102.488 7.675C104.121 7.675 105.58 8.03667 106.863 8.76C108.17 9.46 109.196 10.475 109.943 11.805C110.713 13.1117 111.098 14.6983 111.098 16.565C111.098 18.4083 110.736 20.0067 110.013 21.36C109.313 22.69 108.321 23.7167 107.038 24.44C105.755 25.14 104.238 25.49 102.488 25.49ZM102.488 24.51C103.328 24.51 104.005 24.2883 104.518 23.845C105.055 23.3783 105.44 22.5733 105.673 21.43C105.906 20.2867 106.023 18.6883 106.023 16.635C106.023 14.5583 105.906 12.9483 105.673 11.805C105.44 10.6383 105.055 9.83333 104.518 9.39C104.005 8.92333 103.328 8.69 102.488 8.69C101.648 8.69 100.971 8.92333 100.458 9.39C99.9446 9.83333 99.5596 10.6383 99.3029 11.805C99.0696 12.9483 98.9529 14.5583 98.9529 16.635C98.9529 18.6883 99.0696 20.2867 99.3029 21.43C99.5596 22.5733 99.9446 23.3783 100.458 23.845C100.971 24.2883 101.648 24.51 102.488 24.51ZM12.74 61.595C10.36 61.595 8.27167 61.0933 6.475 60.09C4.67833 59.0867 3.26667 57.675 2.24 55.855C1.23667 54.0117 0.735 51.8533 0.735 49.38C0.735 46.9533 1.225 44.83 2.205 43.01C3.20833 41.19 4.655 39.7783 6.545 38.775C8.435 37.7483 10.6983 37.235 13.335 37.235C14.595 37.235 15.7617 37.375 16.835 37.655C17.9317 37.935 18.9583 38.3433 19.915 38.88L20.055 43.885H19.11L17.36 40.35C17.08 39.79 16.8117 39.3817 16.555 39.125C16.2983 38.8683 15.96 38.6817 15.54 38.565C15.2367 38.4483 14.945 38.3783 14.665 38.355C14.385 38.3083 14.0233 38.285 13.58 38.285C12.11 38.285 10.815 38.67 9.695 39.44C8.575 40.1867 7.7 41.3767 7.07 43.01C6.46333 44.6433 6.16 46.7667 6.16 49.38C6.16 53.3233 6.80167 56.1817 8.085 57.955C9.39167 59.705 11.13 60.58 13.3 60.58C13.8133 60.58 14.2567 60.51 14.63 60.37C15.0733 60.3 15.3767 60.125 15.54 59.845C15.7033 59.5417 15.785 59.1683 15.785 58.725C15.785 57.7683 15.7733 56.73 15.75 55.61C15.75 54.4667 15.75 53.4283 15.75 52.495C15.75 51.585 15.2717 51.025 14.315 50.815L12.74 50.465V49.73H22.4V50.465L21.98 50.57C21.5367 50.71 21.1983 50.92 20.965 51.2C20.7317 51.4567 20.615 51.8183 20.615 52.285C20.615 53.2183 20.6033 54.175 20.58 55.155C20.58 56.1117 20.58 57.08 20.58 58.06V59.565C19.3667 60.2183 18.13 60.72 16.87 61.07C15.6333 61.42 14.2567 61.595 12.74 61.595ZM28.5737 61.49C27.2437 61.49 26.112 61.1167 25.1787 60.37C24.2687 59.6 23.8137 58.5033 23.8137 57.08C23.8137 55.96 24.3503 54.9333 25.4237 54C26.5203 53.0433 28.2353 52.3433 30.5687 51.9C30.9653 51.8067 31.4203 51.725 31.9337 51.655C32.4703 51.5617 32.9953 51.4683 33.5087 51.375V48.89C33.5087 47.3033 33.3103 46.2067 32.9137 45.6C32.517 44.9933 31.887 44.69 31.0237 44.69H30.9187C30.382 44.69 29.9503 44.865 29.6237 45.215C29.3203 45.5417 29.122 46.09 29.0287 46.86L28.9237 47.315C28.8537 48.2483 28.6087 48.9367 28.1887 49.38C27.7687 49.8 27.2437 50.01 26.6137 50.01C26.0303 50.01 25.5403 49.835 25.1437 49.485C24.7703 49.1117 24.5837 48.6333 24.5837 48.05C24.5837 47.0933 24.9103 46.2883 25.5637 45.635C26.217 44.9817 27.0803 44.4917 28.1537 44.165C29.2503 43.8383 30.4287 43.675 31.6887 43.675C33.7653 43.675 35.352 44.1767 36.4487 45.18C37.5453 46.1833 38.0937 47.8167 38.0937 50.08V57.885C38.0937 58.8883 38.572 59.39 39.5287 59.39H40.3337L40.6837 59.775C40.2637 60.3117 39.797 60.72 39.2837 61C38.7703 61.3033 38.0703 61.455 37.1837 61.455C36.1803 61.455 35.3753 61.2217 34.7687 60.755C34.1853 60.265 33.8003 59.6233 33.6137 58.83C32.867 59.6233 32.132 60.265 31.4087 60.755C30.6853 61.245 29.7403 61.49 28.5737 61.49ZM30.6037 59.25C31.0703 59.25 31.5137 59.145 31.9337 58.935C32.3537 58.725 32.8787 58.375 33.5087 57.885V52.285C32.902 52.3783 32.2837 52.495 31.6537 52.635C30.6503 52.8683 29.8337 53.3 29.2037 53.93C28.597 54.56 28.2937 55.4117 28.2937 56.485C28.2937 57.4183 28.5037 58.1183 28.9237 58.585C29.367 59.0283 29.927 59.25 30.6037 59.25ZM41.3746 61V60.335L41.8996 60.16C42.3663 60.0433 42.6813 59.845 42.8446 59.565C43.0313 59.285 43.1246 58.9117 43.1246 58.445V48.19C43.1013 47.6767 43.008 47.2917 42.8446 47.035C42.6813 46.755 42.3663 46.5683 41.8996 46.475L41.3746 46.335V45.705L47.0796 43.675L47.4996 44.06L47.8146 47.14V47.385C48.1646 46.7317 48.608 46.125 49.1446 45.565C49.6813 45.005 50.2646 44.55 50.8946 44.2C51.5246 43.85 52.1546 43.675 52.7846 43.675C53.6713 43.675 54.3363 43.9083 54.7796 44.375C55.223 44.8417 55.4446 45.4367 55.4446 46.16C55.4446 46.9533 55.223 47.56 54.7796 47.98C54.3363 48.3767 53.7996 48.575 53.1696 48.575C52.2363 48.575 51.4313 48.155 50.7546 47.315L50.6846 47.245C50.4513 46.965 50.183 46.8133 49.8796 46.79C49.5996 46.7433 49.3196 46.8833 49.0396 47.21C48.8063 47.4433 48.5846 47.7233 48.3746 48.05C48.188 48.3533 48.013 48.715 47.8496 49.135V58.305C47.8496 58.7483 47.943 59.1217 48.1296 59.425C48.3163 59.705 48.6313 59.9033 49.0746 60.02L50.1246 60.335V61H41.3746ZM64.6469 61.49C63.0602 61.49 61.6252 61.1517 60.3419 60.475C59.0586 59.775 58.0436 58.7717 57.2969 57.465C56.5736 56.135 56.2119 54.525 56.2119 52.635C56.2119 50.745 56.6202 49.135 57.4369 47.805C58.2536 46.475 59.3386 45.46 60.6919 44.76C62.0686 44.0367 63.5736 43.675 65.2069 43.675C66.5369 43.675 67.6686 43.8967 68.6019 44.34C69.5352 44.7833 70.2469 45.355 70.7369 46.055C71.2269 46.7317 71.4719 47.455 71.4719 48.225C71.4719 48.8783 71.2736 49.38 70.8769 49.73C70.5036 50.08 70.0136 50.255 69.4069 50.255C68.7536 50.255 68.2169 50.0217 67.7969 49.555C67.4002 49.0883 67.1669 48.4933 67.0969 47.77C67.0736 47.3033 67.0736 46.9067 67.0969 46.58C67.1436 46.2533 67.1436 45.9383 67.0969 45.635C67.0036 45.2383 66.8402 44.97 66.6069 44.83C66.3969 44.69 66.0936 44.62 65.6969 44.62C64.2269 44.62 63.0952 45.215 62.3019 46.405C61.5319 47.5717 61.1469 49.4733 61.1469 52.11C61.1469 54.3733 61.5786 56.1117 62.4419 57.325C63.3052 58.5383 64.6469 59.145 66.4669 59.145C67.5402 59.145 68.4269 58.9467 69.1269 58.55C69.8269 58.13 70.4686 57.535 71.0519 56.765L71.6119 57.185C71.0286 58.585 70.1302 59.6583 68.9169 60.405C67.7269 61.1283 66.3036 61.49 64.6469 61.49ZM73.2993 61V60.335L73.8243 60.195C74.291 60.055 74.606 59.845 74.7693 59.565C74.9326 59.285 75.0143 58.9117 75.0143 58.445C75.0143 57.6517 75.0143 56.8233 75.0143 55.96C75.0376 55.0733 75.0493 54.3033 75.0493 53.65V52.005C75.0493 51.2817 75.0376 50.6167 75.0143 50.01C75.0143 49.38 75.0143 48.7383 75.0143 48.085C74.991 47.6183 74.8976 47.2567 74.7343 47C74.571 46.72 74.256 46.5333 73.7893 46.44L73.2993 46.335V45.705L79.4243 43.675L79.8443 44.06L79.7393 49.03V58.48C79.7626 58.9467 79.856 59.32 80.0193 59.6C80.1826 59.88 80.486 60.09 80.9293 60.23L81.3143 60.335V61H73.2993ZM75.0843 40.875C75.4576 40.2217 75.8543 39.5333 76.2743 38.81C76.7176 38.0633 77.231 37.1533 77.8143 36.08C78.211 35.3567 78.596 34.8433 78.9693 34.54C79.3426 34.2133 79.7626 34.05 80.2293 34.05C80.6493 34.05 81.0226 34.19 81.3493 34.47C81.6993 34.75 81.8743 35.1233 81.8743 35.59C81.8743 36.0333 81.7226 36.4417 81.4193 36.815C81.116 37.1883 80.626 37.62 79.9493 38.11C79.016 38.8333 78.211 39.4517 77.5343 39.965C76.8576 40.4783 76.251 40.9567 75.7143 41.4L75.0843 40.875ZM87.9438 61.49C86.6138 61.49 85.4821 61.1167 84.5488 60.37C83.6388 59.6 83.1838 58.5033 83.1838 57.08C83.1838 55.96 83.7205 54.9333 84.7938 54C85.8905 53.0433 87.6055 52.3433 89.9388 51.9C90.3355 51.8067 90.7905 51.725 91.3038 51.655C91.8405 51.5617 92.3655 51.4683 92.8788 51.375V48.89C92.8788 47.3033 92.6805 46.2067 92.2838 45.6C91.8871 44.9933 91.2571 44.69 90.3938 44.69H90.2888C89.7521 44.69 89.3205 44.865 88.9938 45.215C88.6905 45.5417 88.4921 46.09 88.3988 46.86L88.2938 47.315C88.2238 48.2483 87.9788 48.9367 87.5588 49.38C87.1388 49.8 86.6138 50.01 85.9838 50.01C85.4005 50.01 84.9105 49.835 84.5138 49.485C84.1405 49.1117 83.9538 48.6333 83.9538 48.05C83.9538 47.0933 84.2805 46.2883 84.9338 45.635C85.5871 44.9817 86.4505 44.4917 87.5238 44.165C88.6205 43.8383 89.7988 43.675 91.0588 43.675C93.1355 43.675 94.7221 44.1767 95.8188 45.18C96.9155 46.1833 97.4638 47.8167 97.4638 50.08V57.885C97.4638 58.8883 97.9421 59.39 98.8988 59.39H99.7038L100.054 59.775C99.6338 60.3117 99.1671 60.72 98.6538 61C98.1405 61.3033 97.4405 61.455 96.5538 61.455C95.5505 61.455 94.7455 61.2217 94.1388 60.755C93.5555 60.265 93.1705 59.6233 92.9838 58.83C92.2371 59.6233 91.5021 60.265 90.7788 60.755C90.0555 61.245 89.1105 61.49 87.9438 61.49ZM89.9738 59.25C90.4405 59.25 90.8838 59.145 91.3038 58.935C91.7238 58.725 92.2488 58.375 92.8788 57.885V52.285C92.2721 52.3783 91.6538 52.495 91.0238 52.635C90.0205 52.8683 89.2038 53.3 88.5738 53.93C87.9671 54.56 87.6638 55.4117 87.6638 56.485C87.6638 57.4183 87.8738 58.1183 88.2938 58.585C88.7371 59.0283 89.2971 59.25 89.9738 59.25Z" fill="black"/>
</svg>
